<?xml version="1.0" encoding="UTF-8"?>
<svg id="Layer_1" data-name="Layer 1" xmlns="http://www.w3.org/2000/svg" viewBox="0 0 141.67 48.53">
  <defs>
    <style>
      .cls-1 {
        fill: #020fe7;
        stroke-width: 0px;
      }
    </style>
  </defs>
  <path class="cls-1" d="M21.33,17.82h5.18c.69,0,1.37.07,2.05.22.68.14,1.28.38,1.81.71.53.33.96.76,1.28,1.28.33.53.49,1.18.49,1.97,0,1.01-.27,1.83-.8,2.47-.54.64-1.26,1.1-2.17,1.37v.05c.54.05,1.05.19,1.52.42.47.23.88.53,1.22.9.34.37.61.8.8,1.28.19.49.29,1.01.29,1.57,0,.94-.2,1.72-.59,2.33-.39.61-.9,1.09-1.54,1.45-.63.36-1.34.61-2.13.76-.79.14-1.58.22-2.36.22h-5.06v-16.98ZM23.35,25.02h2.78c.48,0,.95-.03,1.4-.1.46-.06.87-.2,1.24-.4.37-.2.66-.48.89-.84.22-.36.34-.84.34-1.43,0-.53-.1-.95-.31-1.28-.21-.33-.48-.59-.83-.78-.34-.19-.74-.32-1.18-.4-.44-.07-.88-.11-1.33-.11h-3v5.32ZM23.35,32.93h3.41c.5,0,.99-.05,1.48-.16.49-.1.93-.27,1.32-.5.39-.23.71-.54.95-.91.24-.38.36-.84.36-1.38,0-.59-.12-1.09-.35-1.49-.23-.4-.54-.72-.91-.96-.38-.24-.81-.41-1.29-.5-.49-.1-.99-.14-1.5-.14h-3.45v6.04Z"/>
  <path class="cls-1" d="M36.15,17.82h4.34c.82,0,1.63.05,2.43.14.81.1,1.53.3,2.17.62.64.32,1.16.79,1.56,1.4.4.62.6,1.45.6,2.51,0,1.25-.37,2.25-1.12,3.02-.74.77-1.79,1.26-3.13,1.46l4.82,7.82h-2.47l-4.61-7.63h-2.59v7.63h-2.02v-16.98ZM38.17,25.31h1.8c.54,0,1.12-.02,1.73-.05.61-.03,1.16-.14,1.67-.31.5-.17.92-.45,1.25-.83.33-.38.49-.91.49-1.62,0-.61-.12-1.1-.36-1.46-.24-.37-.56-.65-.95-.85-.39-.2-.83-.33-1.32-.4-.49-.06-.98-.1-1.48-.1h-2.83v5.61Z"/>
  <polygon class="cls-1" points="50.97 17.82 61.65 17.82 61.65 19.69 52.99 19.69 52.99 25.02 61.07 25.02 61.07 26.89 52.99 26.89 52.99 32.93 62.08 32.93 62.08 34.81 50.97 34.81 50.97 17.82"/>
  <polygon class="cls-1" points="65.22 17.82 67.45 17.82 71.31 31.93 71.36 31.93 75.53 17.82 77.79 17.82 81.94 31.93 81.98 31.93 85.92 17.82 88.03 17.82 83.04 34.81 80.86 34.81 76.66 20.41 76.61 20.41 72.39 34.81 70.18 34.81 65.22 17.82"/>
  <path class="cls-1" d="M98.63,27.73l-.05-.05c-.32.18-.69.3-1.11.38-.42.08-.81.12-1.16.12-.75,0-1.44-.13-2.06-.38-.62-.26-1.16-.62-1.62-1.09-.45-.47-.81-1.03-1.07-1.68-.26-.65-.38-1.37-.38-2.17s.14-1.57.43-2.23c.29-.65.69-1.21,1.2-1.67.51-.46,1.12-.81,1.81-1.05.7-.25,1.44-.37,2.24-.37s1.55.12,2.24.37c.7.25,1.3.6,1.81,1.05.51.46.91,1.01,1.2,1.67.29.66.43,1.4.43,2.23,0,.5-.04.95-.12,1.37-.08.42-.19.82-.34,1.2-.14.38-.32.76-.52,1.11-.2.36-.41.72-.64,1.09l-4.51,7.17h-2.35l4.56-7.08ZM96.85,26.46c.51,0,.99-.08,1.44-.25.45-.17.84-.41,1.16-.72.33-.31.59-.69.78-1.13.19-.44.29-.94.29-1.5s-.1-1.04-.29-1.49c-.19-.45-.45-.83-.78-1.14-.33-.31-.72-.55-1.16-.72-.45-.17-.93-.25-1.44-.25s-.99.09-1.44.25c-.45.17-.84.41-1.17.72-.33.31-.59.69-.78,1.14-.19.45-.29.94-.29,1.49s.1,1.06.29,1.5c.19.44.45.82.78,1.13.33.31.72.55,1.17.72.45.17.93.25,1.44.25"/>
  <path class="cls-1" d="M105.68,32.5l6.4-6.24c.4-.38.75-.74,1.06-1.07.3-.33.55-.65.76-.96.2-.31.35-.64.44-.97.09-.34.14-.71.14-1.13,0-.45-.08-.85-.24-1.2-.16-.35-.38-.65-.66-.9-.28-.25-.61-.44-.98-.58-.38-.14-.78-.2-1.21-.2-.86,0-1.57.25-2.13.74-.56.5-.92,1.15-1.08,1.97l-2.18-.19c.11-.69.32-1.3.64-1.83.31-.54.7-.98,1.18-1.33.47-.35,1-.62,1.59-.8.59-.18,1.23-.28,1.92-.28s1.35.1,1.98.3c.63.2,1.18.49,1.65.88.47.38.85.86,1.13,1.44.28.58.42,1.24.42,1.99,0,.67-.09,1.28-.28,1.82-.18.54-.43,1.05-.74,1.51-.31.46-.66.9-1.05,1.3-.39.4-.8.8-1.24,1.2l-5.23,4.92v.05h8.66v1.87h-10.94v-2.3Z"/>
  <path class="cls-1" d="M123.44,21.01c-2.78,0-5.04-2.26-5.04-5.04s2.26-5.04,5.04-5.04,5.04,2.26,5.04,5.04-2.26,5.04-5.04,5.04M123.44,12.71c-1.79,0-3.25,1.46-3.25,3.25s1.46,3.25,3.25,3.25,3.25-1.46,3.25-3.25-1.46-3.25-3.25-3.25"/>
</svg>